<svg xmlns="http://www.w3.org/2000/svg" width="60px" height="60px" viewBox="0 0 45 45"
                             version="1.1">
                            <path
                                d="M28.6364 40.9091C29.766 40.9091 30.6818 41.8249 30.6818 42.9545C30.6818 44.0842 29.766 45 28.6364 45L8.18182 45C3.66312 45 0 41.3369 0 36.8182L0 8.18182C-6.81273e-16 3.66312 3.66312 1.36255e-15 8.18182 0L36.8182 0C41.3369 -6.81273e-16 45 3.66312 45 8.18182L45 36.8182C45 41.3369 41.3369 45 36.8182 45C35.6885 45 34.7727 44.0842 34.7727 42.9545C34.7727 41.8249 35.6885 40.9091 36.8182 40.9091C39.0775 40.9091 40.9091 39.0775 40.9091 36.8182L40.9091 8.18182C40.9091 5.92247 39.0775 4.09091 36.8182 4.09091L8.18182 4.09091C5.92247 4.09091 4.09091 5.92247 4.09091 8.18182L4.09091 36.8182C4.09091 39.0775 5.92247 40.9091 8.18182 40.9091L28.6364 40.9091Z"
                                id="Combined-Shape" fill="#33548A" stroke="none"/>
                            <path
                                d="M6.13636 12.2727C2.74734 12.2727 0 9.52538 0 6.13636C0 2.74734 2.74734 0 6.13636 0C9.52538 0 12.2727 2.74734 12.2727 6.13636C12.2727 9.52538 9.52538 12.2727 6.13636 12.2727ZM8.18182 6.13636C8.18182 7.26604 7.26604 8.18182 6.13636 8.18182C5.00669 8.18182 4.09091 7.26604 4.09091 6.13636C4.09091 5.00669 5.00669 4.09091 6.13636 4.09091C7.26604 4.09091 8.18182 5.00669 8.18182 6.13636ZM21.0542 12.8777C21.8527 12.0799 23.1464 12.0797 23.9452 12.8772L28.0361 16.9616C28.8355 17.7598 28.8366 19.0549 28.0384 19.8543C27.2402 20.6537 25.9451 20.6548 25.1457 19.8566L22.5006 17.2157L15.764 23.9469C14.9651 24.7452 13.6704 24.7449 12.8718 23.9464L10.2273 21.3018L3.49181 28.0373C2.69301 28.8361 1.3979 28.8361 0.5991 28.0373C-0.1997 27.2385 -0.1997 25.9434 0.5991 25.1446L8.78092 16.9627C9.57972 16.1639 10.8748 16.1639 11.6736 16.9627L14.3188 19.6079L21.0542 12.8777Z"
                                transform="translate(8.181763 8.181824)" id="Combined-Shape" fill="#E67F4F"
                                fillRule="evenodd" stroke="none"/>
                        </svg>