<svg xmlns="http://www.w3.org/2000/svg" width="28px" height="28px">
            <g>
              <path
                d="M25.6291 21.7976C25.2698 22.3324 24.5449 22.4748 24.0101 22.1155C23.4752 21.7562 23.3329 21.0313 23.6922 20.4965C24.9727 18.5901 25.6667 16.3483 25.6667 14C25.6667 7.55668 20.4433 2.33333 14 2.33333C7.55668 2.33333 2.33333 7.55668 2.33333 14C2.33333 20.4433 7.55668 25.6667 14 25.6667C16.3595 25.6667 18.6116 24.966 20.5235 23.6739C21.0574 23.3132 21.7826 23.4535 22.1434 23.9873C22.5042 24.5212 22.3639 25.2464 21.83 25.6072C19.5352 27.158 16.8289 28 14 28C6.26801 28 0 21.732 0 14C0 6.26801 6.26801 0 14 0C21.732 0 28 6.26801 28 14C28 16.8154 27.1661 19.5094 25.6291 21.7976Z"
                id="Combined-Shape"
                fill="#E67F4F"
                stroke="none"
              />
              <path
                d="M4.66667 17.5C3.378 17.5 2.33333 16.4553 2.33333 15.1667C2.33333 13.878 3.378 12.8333 4.66667 12.8333C5.95533 12.8333 7 13.878 7 15.1667C7 16.4553 5.95533 17.5 4.66667 17.5ZM5.83333 10.5C5.83331 11.1444 5.31096 11.6667 4.66663 11.6667C4.0223 11.6666 3.49998 11.1443 3.5 10.5L3.5 10.415C3.5 8.77271 4.36323 7.25133 5.773 6.40897C6.63841 5.89187 7 5.33923 7 4.66667C7 3.378 5.95533 2.33333 4.66667 2.33333C3.378 2.33333 2.33333 3.378 2.33333 4.66667C2.33333 5.311 1.811 5.83333 1.16667 5.83333C0.522334 5.83333 0 5.311 0 4.66667C0 2.08934 2.08934 0 4.66667 0C7.244 0 9.33333 2.08934 9.33333 4.66667C9.33333 6.22225 8.49809 7.49882 6.96983 8.41197C6.26495 8.83316 5.83334 9.59385 5.83334 10.415L5.83333 10.5Z"
                transform="translate(9.333252 5.833336)"
                id="Combined-Shape"
                fill="#33548A"
                stroke="none"
              />
            </g>
          </svg>