                <svg xmlns="http://www.w3.org/2000/svg" width="60px" height="60px" viewBox="0 0 40 41" version="1.1">
                    <path d="M30.7171 9.90442C30.2681 10.8026 29.1759 11.1666 28.2778 10.7175C27.3797 10.2685 27.0156 9.17633 27.4647 8.27819L30.096 3.0156C31.0199 1.16768 32.9086 0.000398285 34.9747 0.000398285L35.4545 0.000398285C37.9649 0.000398285 40 2.03547 40 4.54585L40 32.7277C40 36.7443 36.7439 40.0004 32.7273 40.0004L7.27273 40.0004C3.25611 40.0004 0 36.7443 0 32.7277L0 5.45494C-6.05576e-16 2.44248 2.44208 0.000398285 5.45455 0.000398285C6.4587 0.000398285 7.27273 0.814426 7.27273 1.81858C7.27273 2.82273 6.4587 3.63676 5.45455 3.63676C4.45039 3.63676 3.63636 4.45079 3.63636 5.45494L3.63636 32.7277C3.63636 34.736 5.26442 36.364 7.27273 36.364L32.7273 36.364C34.7356 36.364 36.3636 34.736 36.3636 32.7277L36.3636 4.54585C36.3636 4.04378 35.9566 3.63676 35.4545 3.63676L34.9747 3.63676C34.286 3.63676 33.6564 4.02586 33.3484 4.64183L30.7171 9.90442ZM21.6262 9.90442C21.1772 10.8026 20.085 11.1666 19.1869 10.7175C18.2887 10.2685 17.9247 9.17633 18.3738 8.27819L22.0101 1.00546C22.4592 0.107322 23.5513 -0.256723 24.4495 0.192349C25.3476 0.64142 25.7117 1.73355 25.2626 2.6317L21.6262 9.90442ZM12.5353 9.90442C12.0863 10.8026 10.9941 11.1666 10.096 10.7175C9.19783 10.2685 8.83379 9.17633 9.28286 8.27819L12.9192 1.00546C13.3683 0.107322 14.4604 -0.256723 15.3586 0.192349C16.2567 0.64142 16.6208 1.73355 16.1717 2.6317L12.5353 9.90442Z"
                          fill="#33548A" stroke="none"/>
                    <path d="M2.6313 0.194296L13.5404 5.64884C14.8805 6.31889 14.8805 8.23126 13.5404 8.9013L2.6313 14.3558C1.42239 14.9603 0 14.0812 0 12.7296L0 1.82053C0 0.468924 1.42239 -0.410159 2.6313 0.194296ZM3.63636 4.76241L3.63636 9.78774L8.66169 7.27507L3.63636 4.76241Z"
                          transform="translate(12.72729 16.36169)" fill="#E67F4F" stroke="none"/>
                </svg>